<?xml version="1.0" encoding="UTF-8" standalone="no"?>
<!-- Created with Inkscape (http://www.inkscape.org/) -->
<svg xmlns:dc="http://purl.org/dc/elements/1.1/" xmlns:cc="http://creativecommons.org/ns#" xmlns:rdf="http://www.w3.org/1999/02/22-rdf-syntax-ns#" xmlns:svg="http://www.w3.org/2000/svg" xmlns="http://www.w3.org/2000/svg" xmlns:sodipodi="http://sodipodi.sourceforge.net/DTD/sodipodi-0.dtd" xmlns:inkscape="http://www.inkscape.org/namespaces/inkscape" width="283.79001" height="129.23251" id="svg3977" sodipodi:version="0.32" inkscape:version="0.46" version="1.0" sodipodi:docname="Eurostat logo.svg" inkscape:output_extension="org.inkscape.output.svg.inkscape">
  <defs id="defs3979">
    <inkscape:perspective sodipodi:type="inkscape:persp3d" inkscape:vp_x="0 : 526.18109 : 1" inkscape:vp_y="0 : 1000 : 0" inkscape:vp_z="744.09448 : 526.18109 : 1" inkscape:persp3d-origin="372.04724 : 350.78739 : 1" id="perspective3985"/>
  </defs>
  <sodipodi:namedview id="base" pagecolor="#ffffff" bordercolor="#666666" borderopacity="1.0" gridtolerance="10000" guidetolerance="10" objecttolerance="10" inkscape:pageopacity="0.0" inkscape:pageshadow="2" inkscape:zoom="3.9914743" inkscape:cx="142.89642" inkscape:cy="64.616257" inkscape:document-units="px" inkscape:current-layer="layer1" showgrid="false" inkscape:window-width="1280" inkscape:window-height="750" inkscape:window-x="-8" inkscape:window-y="-8"/>
  <metadata id="metadata3982">
    <rdf:RDF>
      <cc:Work rdf:about="">
        <dc:format>image/svg+xml</dc:format>
        <dc:type rdf:resource="http://purl.org/dc/dcmitype/StillImage"/>
      </cc:Work>
    </rdf:RDF>
  </metadata>
  <g inkscape:label="Layer 1" inkscape:groupmode="layer" id="layer1" transform="translate(-97.615371,-367.74593)">
    <path id="path3545" style="fill:#244aa5;fill-opacity:1;fill-rule:nonzero;stroke:none" d="M 381.41037,421.18721 L 381.41037,427.36879 L 374.66519,427.36879 L 374.66519,443.94395 C 374.66519,445.51183 374.91401,446.55809 375.42964,447.05872 C 375.96026,447.57436 377.00052,447.85316 378.56539,447.85316 C 379.08403,447.85316 379.56968,447.81419 380.06433,447.77821 C 380.526,447.72425 380.98468,447.66729 381.41037,447.57436 L 381.41037,454.72725 C 380.63391,454.86815 379.77354,454.9311 378.81722,454.96108 C 377.86691,455.02404 376.92857,455.03304 376.03521,455.03304 C 374.59624,455.03304 373.2532,454.94009 371.96711,454.74824 C 370.69302,454.55337 369.57183,454.16065 368.60052,453.60606 C 367.62921,453.04545 366.84977,452.23903 366.28617,451.20177 C 365.73756,450.1855 365.44378,448.82147 365.44378,447.13368 L 365.44378,427.36879 L 359.86775,427.36879 L 359.86775,421.18721 L 365.44378,421.18721 L 365.44378,411.15037 L 374.66519,411.15037 L 374.66519,421.18721 L 381.41037,421.18721 z M 345.30416,439.1204 C 344.71058,439.31525 344.08103,439.47714 343.4215,439.60006 C 342.76498,439.73796 342.04549,439.83688 341.32,439.92382 C 340.59153,440.01976 339.84506,440.12168 339.10759,440.26558 C 338.41507,440.37051 337.74656,440.55038 337.09003,440.77221 C 336.39751,440.98207 335.82793,441.27286 335.33928,441.6416 C 334.83264,442.01634 334.44592,442.475 334.13414,443.03859 C 333.82836,443.59621 333.68745,444.30669 333.68745,445.17608 C 333.68745,446.00348 333.82836,446.693 334.13414,447.25959 C 334.44592,447.81419 334.84763,448.25788 335.35427,448.57864 C 335.88188,448.91741 336.49045,449.12426 337.17096,449.27116 C 337.88147,449.40305 338.58596,449.45402 339.31144,449.45402 C 341.11315,449.45402 342.51615,449.17222 343.52344,448.55766 C 344.51572,447.95809 345.23821,447.22661 345.72686,446.38421 C 346.18253,445.54181 346.48532,444.67843 346.59923,443.82704 C 346.71015,442.95766 346.74913,442.27115 346.74913,441.75252 L 346.74913,438.31098 C 346.35641,438.65273 345.87975,438.91655 345.30416,439.1204 M 327.14313,426.0947 C 328.10246,424.66773 329.31358,423.52554 330.77354,422.67116 C 332.24248,421.79578 333.89131,421.19321 335.729,420.82746 C 337.56069,420.45574 339.41038,420.29384 341.26904,420.29384 C 342.94485,420.29384 344.66561,420.39877 346.38938,420.6386 C 348.10115,420.87842 349.69003,421.3251 351.12001,422.02662 C 352.54699,422.72511 353.69817,423.69342 354.6185,424.90455 C 355.51787,426.13068 355.97654,427.7855 355.97654,429.79406 L 355.97654,447.2536 C 355.97654,448.74653 356.06047,450.20649 356.23735,451.5885 C 356.39923,452.96751 356.71701,454.00476 357.1487,454.69728 L 347.80137,454.72725 C 347.63649,454.19963 347.4896,453.672 347.39367,453.1264 C 347.28275,452.58977 347.1988,452.03518 347.15384,451.45658 C 345.69088,452.96751 343.96411,454.03175 341.97654,454.63432 C 339.98296,455.23089 337.95941,455.54867 335.88188,455.54867 C 334.28702,455.54867 332.79409,455.34182 331.40008,454.9551 C 330.02108,454.57436 328.79796,453.95981 327.76369,453.13839 C 326.72042,452.32297 325.926,451.28571 325.33242,450.0386 C 324.76283,448.78251 324.45404,447.28057 324.45404,445.5628 C 324.45404,443.66815 324.79281,442.10627 325.47033,440.87415 C 326.13884,439.63902 326.99324,438.65273 328.05448,437.91526 C 329.11572,437.19278 330.31786,436.63219 331.68489,436.27543 C 333.04592,435.90969 334.40395,435.61291 335.80694,435.39407 C 337.17996,435.18122 338.54998,435.01933 339.89302,434.87244 C 341.21508,434.75852 342.41423,434.55167 343.46647,434.29685 C 344.48574,434.03903 345.31615,433.6583 345.91272,433.15166 C 346.52128,432.66301 346.7881,431.94353 346.74913,431.00219 C 346.74913,430.00092 346.59923,429.20049 346.26647,428.6219 C 345.9427,428.0613 345.523,427.59964 344.97739,427.26986 C 344.43778,426.95209 343.82921,426.73025 343.10372,426.62233 C 342.39923,426.50241 341.64078,426.46044 340.81936,426.46044 C 339.02065,426.46044 337.59067,426.83518 336.55042,427.62062 C 335.52514,428.40006 334.91958,429.67114 334.7457,431.47286 L 325.52429,431.47286 C 325.66518,429.3204 326.19281,427.52468 327.14313,426.0947 M 320.41893,421.18721 L 320.41893,427.36879 L 313.67376,427.36879 L 313.67376,443.94395 C 313.67376,445.51183 313.94056,446.55809 314.45619,447.05872 C 314.96883,447.57436 316.00908,447.85316 317.55298,447.85316 C 318.08359,447.85316 318.58725,447.81419 319.04591,447.77821 C 319.53456,447.72425 319.99024,447.66729 320.41893,447.57436 L 320.41893,454.72725 C 319.64548,454.86815 318.77311,454.9311 317.82279,454.96108 C 316.87547,455.02404 315.95512,455.03304 315.03178,455.03304 C 313.61379,455.03304 312.25276,454.94009 310.98167,454.74824 C 309.69859,454.55337 308.57739,454.16065 307.59709,453.60606 C 306.62279,453.04545 305.85534,452.23903 305.30972,451.20177 C 304.73414,450.1855 304.45535,448.82147 304.45535,447.13368 L 304.45535,427.36879 L 298.86433,427.36879 L 298.86433,421.18721 L 304.45535,421.18721 L 304.45535,411.15037 L 313.67376,411.15037 L 313.67376,421.18721 L 320.41893,421.18721 z M 274.77654,446.37221 C 275.19024,447.08271 275.70887,447.66729 276.3684,448.13196 C 277.01593,448.57565 277.74142,448.93239 278.6048,449.12426 C 279.4382,449.37008 280.30458,449.45402 281.21294,449.45402 C 281.86047,449.45402 282.53799,449.37907 283.24549,449.23817 C 283.96497,449.09727 284.60951,448.83645 285.1881,448.51569 C 285.77268,448.19792 286.26134,447.76622 286.63607,447.22661 C 287.03478,446.675 287.23563,446.00348 287.23563,445.17608 C 287.23563,443.79706 286.32129,442.7568 284.46861,442.05831 C 282.63092,441.3628 280.07975,440.68229 276.79109,440.01077 C 275.45705,439.681 274.13798,439.31826 272.86989,438.91655 C 271.6018,438.52383 270.46861,437.97822 269.46133,437.31869 C 268.46905,436.62019 267.67761,435.79577 267.06904,434.7825 C 266.45448,433.75124 266.15769,432.50712 266.15769,431.02619 C 266.15769,428.88271 266.5714,427.09899 267.42279,425.72297 C 268.26219,424.34396 269.38039,423.25274 270.7594,422.45231 C 272.14141,421.66387 273.7093,421.08528 275.45106,420.75851 C 277.15984,420.44074 278.94056,420.29384 280.75427,420.29384 C 282.56498,420.29384 284.32471,420.45574 286.0275,420.80048 C 287.75726,421.14524 289.26818,421.72082 290.62022,422.55423 C 291.94827,423.35767 293.05748,424.46087 293.95684,425.8129 C 294.8442,427.18592 295.36283,428.89471 295.5457,430.96323 L 286.78296,430.96323 C 286.63306,429.20049 285.98253,428.01034 284.7684,427.38978 C 283.56625,426.77222 282.13328,426.46044 280.49645,426.46044 C 279.98382,426.46044 279.40823,426.48743 278.81166,426.56837 C 278.20309,426.62233 277.65148,426.74823 277.15984,426.97608 C 276.66819,427.18892 276.23349,427.51868 275.89174,427.9024 C 275.54399,428.31012 275.36412,428.87372 275.36412,429.57821 C 275.36412,430.38764 275.67889,431.05316 276.29045,431.5598 C 276.88703,432.09341 277.69645,432.50712 278.64677,432.84288 C 279.63307,433.15166 280.73928,433.46643 282.00138,433.72126 C 283.23349,433.96708 284.52558,434.25487 285.82065,434.55167 C 287.16069,434.86044 288.45877,435.20819 289.74184,435.65188 C 291.01294,436.08357 292.14913,436.65915 293.14442,437.36966 C 294.14271,438.09214 294.94313,438.96751 295.5457,440.01976 C 296.13928,441.08399 296.44207,442.39406 296.44207,443.94395 C 296.44207,446.14438 296.00438,447.98806 295.126,449.484 C 294.23264,450.95894 293.09045,452.15808 291.64849,453.08143 C 290.2215,453.99278 288.59367,454.61333 286.75598,454.99406 C 284.92429,455.37179 283.03864,455.54867 281.141,455.54867 C 279.20138,455.54867 277.29474,455.34182 275.45705,454.9551 C 273.58638,454.57436 271.93456,453.90883 270.47461,453.01548 C 269.04463,452.09213 267.84249,450.90199 266.91915,449.41505 C 265.98981,447.91312 265.48917,446.04545 265.40224,443.77308 L 274.16198,443.77308 C 274.16198,444.78635 274.35984,445.64374 274.77654,446.37221 M 228.99623,430.67843 C 229.80567,428.49899 230.98381,426.6583 232.49174,425.10241 C 233.99667,423.59149 235.81637,422.37436 237.92385,421.53496 C 240.05234,420.71055 242.42964,420.29384 245.06476,420.29384 C 247.6819,420.29384 250.07419,420.71055 252.22365,421.53496 C 254.35213,422.37436 256.17483,423.59149 257.69174,425.10241 C 259.20566,426.6583 260.35983,428.49899 261.18425,430.67843 C 262.01465,432.87586 262.41936,435.30114 262.41936,438.01718 C 262.41936,440.68229 262.01465,443.10155 261.18425,445.25401 C 260.35983,447.43346 259.20566,449.27414 257.69174,450.82703 C 256.17483,452.35295 254.35213,453.5461 252.22365,454.35252 C 250.07419,455.17693 247.6819,455.59363 245.06476,455.59363 C 242.42964,455.59363 240.05234,455.17693 237.92385,454.35252 C 235.81637,453.5461 233.99667,452.35295 232.49174,450.82703 C 230.98381,449.27414 229.80567,447.43346 228.99623,445.25401 C 228.17482,443.10155 227.76411,440.68229 227.76411,438.01718 C 227.76411,435.30114 228.17482,432.87586 228.99623,430.67843 M 237.37525,441.91141 C 237.63306,443.1825 238.07075,444.34268 238.68531,445.35595 C 239.30887,446.37822 240.14827,447.18464 241.18254,447.7872 C 242.20181,448.39278 243.49688,448.70155 245.06476,448.70155 C 246.61165,448.70155 247.90673,448.39278 248.96797,447.7872 C 250.02321,447.18464 250.85063,446.37822 251.47418,445.35595 C 252.10373,444.34268 252.54742,443.1825 252.81423,441.91141 C 253.06904,440.62832 253.17996,439.31826 253.17996,437.9962 C 253.17996,436.65316 253.06904,435.32211 252.81423,434.02403 C 252.54742,432.73795 252.10373,431.59278 251.47418,430.59449 C 250.85063,429.60819 250.02321,428.77778 248.96797,428.15723 C 247.90673,427.52468 246.61165,427.2189 245.06476,427.2189 C 243.49688,427.2189 242.20181,427.52468 241.18254,428.15723 C 240.14827,428.77778 239.30887,429.60819 238.68531,430.59449 C 238.07075,431.59278 237.63306,432.73795 237.37525,434.02403 C 237.11443,435.32211 236.98553,436.65316 236.98553,437.9962 C 236.98553,439.31826 237.11443,440.62832 237.37525,441.91141 M 214.67846,421.17821 L 214.67846,427.40476 L 214.82236,427.40476 C 215.24806,426.37351 215.83565,425.41719 216.57312,424.52982 C 217.30459,423.63946 218.15597,422.89299 219.1033,422.25745 C 220.06262,421.63389 221.0729,421.15124 222.16112,420.80048 C 223.23436,420.45574 224.37654,420.29384 225.51572,420.29384 C 226.11829,420.29384 226.8048,420.37479 227.52729,420.60562 L 227.52729,429.17051 C 227.10458,429.08057 226.57396,429.00862 225.98039,428.92468 C 225.37782,428.87372 224.80223,428.84374 224.22664,428.84374 C 222.54185,428.84374 221.12685,429.11355 219.93072,429.69213 C 218.77953,430.24374 217.83221,431.02619 217.13371,431.98849 C 216.42322,432.9538 215.90759,434.09299 215.60181,435.39407 C 215.29002,436.68613 215.14613,438.09214 215.14613,439.60905 L 215.14613,454.72725 L 205.93671,454.72725 L 205.93671,421.17821 L 214.67846,421.17821 z M 189.67333,454.76623 L 189.67333,450.07158 L 189.46946,450.07158 C 188.3063,452.03518 186.78939,453.42918 184.93071,454.30156 C 183.06604,455.16195 181.1684,455.59363 179.23178,455.59363 C 176.76754,455.59363 174.74699,455.27586 173.17311,454.61333 C 171.58424,453.97778 170.34313,453.04545 169.43777,451.8613 C 168.52343,450.66815 167.87889,449.21719 167.52514,447.5174 C 167.1654,445.78464 166.97653,443.90798 166.97653,441.83646 L 166.97653,421.18721 L 176.18595,421.18721 L 176.18595,440.15466 C 176.18595,442.91868 176.61765,445.00519 177.48104,446.34523 C 178.35041,447.71227 179.88232,448.39278 182.09474,448.39278 C 184.59195,448.39278 186.39967,447.6523 187.52086,446.15338 C 188.66605,444.64545 189.20866,442.1992 189.20866,438.79063 L 189.20866,421.18721 L 198.43906,421.18721 L 198.43906,454.76623 L 189.67333,454.76623 z M 139.44421,446.678 C 140.81723,448.04802 142.8048,448.70155 145.41294,448.70155 C 147.26262,448.70155 148.85148,448.22789 150.20652,447.31954 C 151.54056,446.38421 152.36797,445.43089 152.67375,444.38164 L 160.79195,444.38164 C 159.48189,448.39278 157.48531,451.28571 154.80523,453.00948 C 152.11915,454.71826 148.88147,455.59363 145.08018,455.59363 C 142.44806,455.59363 140.06475,455.17093 137.93928,454.33153 C 135.82278,453.48014 134.02708,452.27201 132.56412,450.73111 C 131.08617,449.17222 129.95599,447.29557 129.14656,445.15209 C 128.34613,442.97864 127.95941,440.59235 127.95941,438.01718 C 127.95941,435.481 128.35512,433.15166 129.18553,430.98421 C 129.99795,428.82874 131.17612,426.95209 132.68703,425.37523 C 134.20395,423.78336 136.00566,422.55423 138.10116,421.64288 C 140.20266,420.71955 142.54099,420.29384 145.08018,420.29384 C 147.93713,420.29384 150.41936,420.82746 152.54485,421.93667 C 154.67032,423.03689 156.40309,424.51483 157.75812,426.37351 C 159.13713,428.23218 160.09046,430.34567 160.72001,432.73795 C 161.31957,435.11227 161.52942,437.59749 161.34956,440.19962 L 137.17482,440.19962 C 137.30972,443.16751 138.0562,445.34395 139.44421,446.678 M 149.84977,429.03261 C 148.74956,427.82747 147.07676,427.2189 144.82536,427.2189 C 143.35041,427.2189 142.1213,427.46473 141.15299,427.96237 C 140.18467,428.47201 139.41122,429.08057 138.82665,429.80905 C 138.23906,430.55852 137.83435,431.32896 137.58253,432.16836 C 137.36069,432.96879 137.21679,433.72126 137.17482,434.35381 L 152.15812,434.35381 C 151.71445,432.03047 150.94399,430.24374 149.84977,429.03261" sodipodi:nodetypes="ccccssccccsssscccccccccccsccssssscsscsccccccsssccccccsccssccscccsccccsscsscccccccssscccssscccccccccccscsssssscccssccsssccccsscsssccsscscscsssccsccccccsccsscccscccsccscssccscsssccssccccscsscccsssccccccccccscsscccccscccccccsccccscscscccscccccccscccccc"/>
    <path id="path3549" style="fill:#244aa5;fill-opacity:1;fill-rule:nonzero;stroke:none" d="M 257.79697,409.05637 L 288.02138,409.05637 C 313.83295,385.6251 353.15885,371.96386 381.3657,372.2097 L 381.3657,368.30948 C 334.58112,368.30948 299.94686,379.58142 257.79697,409.05637"/>
    <path id="path3553" style="fill:#244aa5;fill-opacity:1;fill-rule:nonzero;stroke:none" d="M 179.78369,465.39392 C 160.52245,473.34724 139.28262,472.98151 118.49847,466.46716 L 117.4732,469.85174 C 129.62352,473.5541 142.09761,475.5087 154.31689,474.75924 L 154.53573,478.38664 C 138.43123,479.39392 122.11388,475.87144 106.67491,470.01063 L 105.4248,473.32026 C 124.70104,480.63803 145.72802,484.43032 165.98755,480.5421 L 166.65607,484.11555 C 143.83637,488.48942 120.39911,483.53097 99.447078,474.89714 L 98.11003,478.17379 C 113.81281,484.5952 130.75971,489.095 148.24922,489.26286 L 148.22524,492.90227 C 139.3126,492.85731 130.53187,491.61319 122.03593,489.67658 L 121.23851,493.12412 C 145.46421,499.20976 173.55715,496.97037 196.38285,485.4406 C 208.21539,479.70569 218.66292,472.55881 228.358,464.92326 L 228.39696,464.98621 C 228.69376,464.74639 229.02052,464.45859 229.32631,464.20077 L 182.61667,464.20077 C 181.66934,464.60549 180.71902,465.02219 179.78369,465.39392"/>
  </g>
</svg>